<svg width="611" height="608" viewBox="0 0 611 608" fill="none" xmlns="http://www.w3.org/2000/svg">
<circle cx="304" cy="53" r="52.5" fill="#22C55E" stroke="#22C55E"/>
<circle cx="481" cy="146" r="52.5" fill="#22C55E" stroke="#22C55E"/>
<circle cx="558" cy="305" r="52.5" fill="#22C55E" stroke="#22C55E"/>
<circle cx="465" cy="430" r="52.5" fill="#22C55E" stroke="#22C55E"/>
<circle cx="146" cy="430" r="52.5" fill="#22C55E" stroke="#22C55E"/>
<circle cx="53" cy="305" r="52.5" fill="#22C55E" stroke="#22C55E"/>
<circle cx="127" cy="146" r="52.5" fill="#22C55E" stroke="#22C55E"/>
<rect x="287.5" y="93.5" width="33" height="504" fill="#22C55E" stroke="#22C55E"/>
<path d="M482.473 169.765L317.546 338.626L293.938 315.568L458.865 146.707L482.473 169.765Z" fill="#22C55E" stroke="#22C55E"/>
<rect x="122.707" y="169.933" width="33" height="238.198" transform="rotate(-44.7311 122.707 169.933)" fill="#22C55E" stroke="#22C55E"/>
<path d="M304.178 404.441C304.178 404.441 370.505 325.869 395.006 316.855C419.507 307.841 531 309 531 309" stroke="#22C55E" stroke-width="30"/>
<path d="M306.028 541.703C306.028 541.703 309.022 449.21 360.52 430.261C412.018 411.312 440.515 430.271 440.515 430.271" stroke="#22C55E" stroke-width="30"/>
<path d="M301.487 541.703C301.487 541.703 298.494 449.21 246.996 430.261C195.498 411.312 167 430.271 167 430.271" stroke="#22C55E" stroke-width="30"/>
<path d="M300.824 402.511C300.824 402.511 234.497 323.94 209.996 314.926C185.495 305.912 74.002 307.07 74.002 307.07" stroke="#22C55E" stroke-width="30"/>
<path d="M309.5 606.07C309.494 606.074 309.489 606.08 309.482 606.084C309.331 606.173 309.012 606.296 308.386 606.403C307.768 606.509 306.88 606.594 305.613 606.625C300.852 606.741 290.92 606.095 270.334 603.13L266.074 602.506L263.91 602.179C241.949 598.811 232.395 595.82 228.359 593.684C226.259 592.572 225.788 591.761 225.709 591.371C225.673 591.189 225.714 591.062 225.755 590.982C225.778 590.94 225.802 590.908 225.818 590.89L225.833 590.874L225.852 590.857L225.877 590.828C254.414 558.036 266.962 532.092 271.736 512.682C276.382 493.792 273.658 481.114 271.173 474.373L309.5 466.611V606.07Z" fill="#22C55E" stroke="#22C55E"/>
<path d="M298.539 606.07C298.545 606.074 298.55 606.08 298.557 606.084C298.708 606.173 299.027 606.296 299.652 606.403C300.271 606.509 301.159 606.594 302.426 606.625C307.186 606.741 317.119 606.095 337.704 603.13L341.965 602.506L344.129 602.179C366.089 598.811 375.644 595.82 379.68 593.684C381.78 592.572 382.251 591.761 382.329 591.371C382.366 591.189 382.325 591.062 382.283 590.982C382.261 590.94 382.237 590.908 382.221 590.89L382.206 590.874L382.187 590.857L382.161 590.828C353.625 558.036 341.077 532.092 336.303 512.682C331.657 493.792 334.381 481.114 336.865 474.373L298.539 466.611V606.07Z" fill="#22C55E" stroke="#22C55E"/>
</svg>
